<?xml version="1.0" encoding="UTF-8" standalone="no"?> <svg xmlns="http://www.w3.org/2000/svg" viewBox="0 0 64 64"><g id="Outline"><path d="M56.1,9.188,59.576,7.7A4,4,0,0,0,62,4.021V3a1,1,0,0,0-2,0V4.021A2,2,0,0,1,58.788,5.86l-.36.154-.842-.842A2.011,2.011,0,0,1,57,3.758V3a1,1,0,0,0-2,0v.758a4.022,4.022,0,0,0,1.172,2.828l.277.277-1.137.488A3.807,3.807,0,0,0,53,10.855V13H52V10.855a3.807,3.807,0,0,0-2.312-3.5l-1.137-.488.277-.277A4.022,4.022,0,0,0,50,3.758V3a1,1,0,0,0-2,0v.758a2.011,2.011,0,0,1-.586,1.414l-.842.842-.36-.154A2,2,0,0,1,45,4.021V3a1,1,0,0,0-2,0V4.021A4,4,0,0,0,45.424,7.7L48.9,9.188A1.813,1.813,0,0,1,50,10.855V13H48a5.006,5.006,0,0,0-5-5H41a1,1,0,0,0-1,1v4a5.008,5.008,0,0,0,4,4.9v2.939L41.613,28H19.888l-.112-.318a5,5,0,0,0-6.369-3.073l-1.887.66a1,1,0,0,0-.615,1.274l1.319,3.776a4.968,4.968,0,0,0,2.388,2.769,11.813,11.813,0,0,0,.227,10.96,14.22,14.22,0,0,0-1.057,2.815L8.8,49H5a1,1,0,0,0-1,1v4H3a1,1,0,0,0-1,1v6a1,1,0,0,0,1.333.943l17-6a1.009,1.009,0,0,0,.457-.329l6.612-8.5C36.736,49.105,43.682,48.777,51.18,46h1.3l-2.142,5H49a1,1,0,0,0-1,1v5a1,1,0,0,0,1.372.929l5-2a1,1,0,0,0,.523-.482l4.49-8.98A5.864,5.864,0,0,0,60,43.86c0-.181-.02-.359-.036-.538a7.19,7.19,0,0,0,.7-1.514A6.965,6.965,0,0,0,61,39.86a5.842,5.842,0,0,0-3.078-5.136L53,32.37V22.741l4.651-1.417A2.981,2.981,0,0,0,60,18.4V16a3,3,0,0,0-3-3H55V10.855A1.813,1.813,0,0,1,56.1,9.188ZM6,51H9a.989.989,0,0,0,.394-.081l3.882-1.664c-.132.849-.2,1.583-.24,2.07L6.8,54H6ZM57.011,36.5A3.828,3.828,0,0,1,59,39.86a3.685,3.685,0,0,1-.071.655,5.805,5.805,0,0,0-1.957-1.766L53,36.574V34.586ZM58,16v2.4a1.023,1.023,0,0,1-.857.995l-5.434,1.652A1,1,0,0,0,51,22V37.167a1,1,0,0,0,.52.877L56.011,40.5A3.828,3.828,0,0,1,57.6,45.572l-4.321,8.641L50,55.523V53h1a1,1,0,0,0,.919-.606l3-7A1,1,0,0,0,54,44H51a1,1,0,0,0-.351.063c-7.432,2.788-14,3.056-23.432.96a1.013,1.013,0,0,0-1.007.363l-6.819,8.768L4,59.587V56H7a.989.989,0,0,0,.394-.081l7-3a1,1,0,0,0,.606-.89c0-.047.158-4.685,1.855-7.49a1,1,0,0,0-.021-1.069c-1.978-2.989-1.962-6.792.042-10.438a1,1,0,0,0-.639-1.453,2.989,2.989,0,0,1-2.125-1.92l-.989-2.832.943-.329a3,3,0,0,1,3.822,1.843l.346.989a1,1,0,0,0,.944.67H42.333a1,1,0,0,0,.949-.684l2.667-8A1,1,0,0,0,46,21V17a1,1,0,0,0-1-1,3,3,0,0,1-3-3V10h1a3,3,0,0,1,3,3v1a1,1,0,0,0,1,1H57A1,1,0,0,1,58,16Z"/><path d="M50,16.5A1.5,1.5,0,1,0,51.5,15,1.5,1.5,0,0,0,50,16.5Z"/><path d="M22.5,32A1.5,1.5,0,1,0,24,33.5,1.5,1.5,0,0,0,22.5,32Z"/><path d="M26.5,35A1.5,1.5,0,1,0,28,36.5,1.5,1.5,0,0,0,26.5,35Z"/><path d="M30.5,32A1.5,1.5,0,1,0,32,33.5,1.5,1.5,0,0,0,30.5,32Z"/><path d="M34.5,35A1.5,1.5,0,1,0,36,36.5,1.5,1.5,0,0,0,34.5,35Z"/><path d="M38.5,32A1.5,1.5,0,1,0,40,33.5,1.5,1.5,0,0,0,38.5,32Z"/><path d="M42.5,35A1.5,1.5,0,1,0,44,36.5,1.5,1.5,0,0,0,42.5,35Z"/></g></svg>