<?xml version="1.0" encoding="UTF-8" standalone="no"?> <svg xmlns="http://www.w3.org/2000/svg" width="1.472" height="1.707" viewBox="0 0 1.472 1.707">
  <g id="Layer_x0020_1" transform="translate(-0.117)">
    <path id="Path_1" data-name="Path 1" d="M.5.495A.872.872,0,0,0,.224.68.3.3,0,0,0,.158.773a.071.071,0,0,0,0,.071A.256.256,0,0,0,.275.9c.078.028.153.054.145.152h0a.38.38,0,0,0,.263.358h0a.017.017,0,0,1,.011.016h0v.1a.017.017,0,0,1-.015.017l-.036.006a.351.351,0,0,0-.087.02c-.029.013-.044.04-.019.1h.756a.751.751,0,0,0,.1-.458A.621.621,0,0,0,1.313.978.47.47,0,0,0,1.147.806.524.524,0,0,0,.814.743C.708.8.664.791.644.755A.187.187,0,0,1,.635.663.142.142,0,0,0,.625.579C.592.541.658.464.736.374A1.743,1.743,0,0,0,.858.222C.906.151.93.087.88.053h0L.862.045A.125.125,0,0,0,.743.087.661.661,0,0,0,.627.24,1.423,1.423,0,0,0,.514.484L.5.479.514.484A.017.017,0,0,1,.5.495ZM.2.657A.926.926,0,0,1,.485.466,1.5,1.5,0,0,1,.6.224.694.694,0,0,1,.721.062.155.155,0,0,1,.872.013.126.126,0,0,1,.9.024h0C.97.074.944.154.886.241A1.774,1.774,0,0,1,.761.4C.694.474.636.541.65.557A.156.156,0,0,1,.668.665.171.171,0,0,0,.673.739C.684.758.716.758.8.713l.007,0h0a.557.557,0,0,1,.357.067.5.5,0,0,1,.177.184.654.654,0,0,1,.08.251.784.784,0,0,1-.1.485.017.017,0,0,1-.015.009H.527A.017.017,0,0,1,.511,1.7L.526,1.69.511,1.7c-.041-.089-.017-.13.032-.152a.37.37,0,0,1,.1-.023l.022,0V1.441a.413.413,0,0,1-.274-.386.017.017,0,0,1,0,0h0C.393.98.33.958.264.935L.209.914h0A.159.159,0,0,1,.136.864a.1.1,0,0,1-.009-.1A.332.332,0,0,1,.2.657Z" fill="#333"/>
    <path id="Path_2" data-name="Path 2" d="M.694.036A.017.017,0,0,0,.7,0S.531-.041.468.19h0a.976.976,0,0,0-.031.25.017.017,0,1,0,.033,0A.942.942,0,0,1,.5.2h0C.554,0,.693.036.694.036Z" fill="#333"/>
    <path id="Path_3" data-name="Path 3" d="M1.4,1.248a.017.017,0,1,0,.022.025l.1-.091c.006,0,.01-.006.014,0a.039.039,0,0,1,.015.025.119.119,0,0,1,0,.055A.191.191,0,0,1,1.4,1.4a.017.017,0,0,0,.008.032.223.223,0,0,0,.181-.165.153.153,0,0,0,0-.07.07.07,0,0,0-.033-.046.043.043,0,0,0-.051.009l-.1.091Z" fill="#333"/>
    <path id="Path_4" data-name="Path 4" d="M.79.989a.017.017,0,1,0,0,.033s.4.045.318.332a.017.017,0,0,0,.032.009C1.232,1.039.792.989.79.989Z" fill="#333"/>
    <path id="Path_5" data-name="Path 5" d="M.454.713a.014.014,0,1,0,0,.01.013.013,0,0,0,0-.01Z" fill="gray"/>
    <path id="Path_6" data-name="Path 6" d="M.445.676A.047.047,0,1,1,.4.722.047.047,0,0,1,.445.676Z" fill="gray"/>
    <path id="Path_7" data-name="Path 7" d="M.374.661A.017.017,0,0,0,.4.678S.43.63.457.66A.017.017,0,0,0,.482.638C.424.574.374.661.374.661Z" fill="#333"/>
    <path id="Path_8" data-name="Path 8" d="M.887,1.222a.017.017,0,1,0-.019-.027s-.2.138.038.332a.411.411,0,0,0-.152.031c-.046.025-.068.066-.029.139a.017.017,0,1,0,.029-.016C.727,1.631.74,1.6.77,1.588A.416.416,0,0,1,.918,1.56l.034,0a.017.017,0,0,0,.009-.03h0c-.252-.18-.074-.3-.073-.3Z" fill="#333"/>
    <path id="Path_9" data-name="Path 9" d="M.138.826A.017.017,0,1,0,.146.858L.264.831A.017.017,0,1,0,.264.8L.138.826Z" fill="#333"/>
  </g>
</svg>
